<svg xmlns="http://www.w3.org/2000/svg" xmlns:xlink="http://www.w3.org/1999/xlink" width="375" viewBox="0 0 375 375" height="375" version="1.0"><defs><clipPath id="a"><path d="M 313 94 L 345.652344 94 L 345.652344 126 L 313 126 Z M 313 94"/></clipPath><clipPath id="b"><path d="M 333.476562 94.46875 C 332.664062 94.269531 331.835938 94.132812 331 94.0625 C 330.164062 93.992188 329.328125 93.992188 328.492188 94.054688 C 327.652344 94.117188 326.828125 94.25 326.011719 94.445312 C 325.195312 94.640625 324.398438 94.898438 323.625 95.21875 C 322.847656 95.542969 322.101562 95.921875 321.390625 96.363281 C 320.675781 96.804688 320 97.300781 319.363281 97.847656 C 318.726562 98.394531 318.140625 98.992188 317.597656 99.632812 C 317.058594 100.273438 316.570312 100.953125 316.136719 101.675781 C 315.894531 102.222656 315.589844 102.710938 315.34375 103.199219 C 314.921875 104.054688 314.613281 104.949219 314.429688 105.886719 C 314.175781 106.890625 314.023438 107.90625 313.972656 108.9375 C 313.921875 109.96875 313.972656 110.996094 314.121094 112.019531 C 314.273438 113.042969 314.519531 114.039062 314.867188 115.015625 C 315.214844 115.988281 315.652344 116.917969 316.183594 117.804688 C 316.714844 118.691406 317.324219 119.519531 318.019531 120.285156 C 318.710938 121.050781 319.472656 121.746094 320.300781 122.359375 C 321.128906 122.976562 322.011719 123.507812 322.945312 123.953125 C 323.875 124.394531 324.84375 124.746094 325.847656 124.996094 C 326.648438 125.191406 327.457031 125.320312 328.277344 125.386719 C 329.097656 125.457031 329.921875 125.460938 330.742188 125.398438 C 331.5625 125.339844 332.375 125.214844 333.179688 125.03125 C 333.980469 124.84375 334.761719 124.597656 335.527344 124.292969 C 336.292969 123.984375 337.027344 123.621094 337.734375 123.199219 C 338.441406 122.777344 339.113281 122.304688 339.75 121.777344 C 340.382812 121.253906 340.972656 120.679688 341.519531 120.0625 C 342.0625 119.445312 342.558594 118.792969 343.003906 118.097656 L 344.164062 115.777344 L 344.222656 115.777344 C 344.53125 115.046875 344.777344 114.292969 344.957031 113.519531 C 345.199219 112.515625 345.34375 111.5 345.386719 110.472656 C 345.429688 109.441406 345.375 108.417969 345.21875 107.398438 C 345.0625 106.378906 344.808594 105.382812 344.457031 104.414062 C 344.105469 103.445312 343.664062 102.519531 343.132812 101.636719 C 342.601562 100.753906 341.988281 99.929688 341.292969 99.164062 C 340.601562 98.402344 339.839844 97.714844 339.011719 97.097656 C 338.183594 96.484375 337.304688 95.957031 336.375 95.515625 C 335.441406 95.070312 334.476562 94.722656 333.476562 94.46875 Z M 333.476562 94.46875"/></clipPath><clipPath id="d"><path d="M 312 254 L 345 254 L 345 287 L 312 287 Z M 312 254"/></clipPath><clipPath id="e"><path d="M 332.378906 254.984375 C 331.5625 254.785156 330.738281 254.648438 329.902344 254.582031 C 329.066406 254.511719 328.230469 254.507812 327.390625 254.570312 C 326.554688 254.636719 325.726562 254.765625 324.910156 254.960938 C 324.09375 255.15625 323.300781 255.414062 322.523438 255.734375 C 321.75 256.058594 321.003906 256.441406 320.289062 256.878906 C 319.574219 257.320312 318.898438 257.816406 318.265625 258.363281 C 317.628906 258.910156 317.039062 259.507812 316.5 260.148438 C 315.957031 260.789062 315.472656 261.472656 315.039062 262.191406 L 314.183594 263.71875 C 313.816406 264.589844 313.511719 265.484375 313.269531 266.402344 C 313.039062 267.308594 312.890625 268.222656 312.824219 269.152344 C 312.757812 270.082031 312.773438 271.011719 312.871094 271.9375 C 312.96875 272.863281 313.148438 273.777344 313.40625 274.671875 C 313.667969 275.566406 314.003906 276.433594 314.417969 277.265625 C 314.832031 278.101562 315.316406 278.894531 315.867188 279.644531 C 316.421875 280.394531 317.039062 281.089844 317.714844 281.730469 C 318.394531 282.371094 319.121094 282.945312 319.902344 283.457031 C 320.679688 283.96875 321.5 284.40625 322.355469 284.769531 C 323.214844 285.136719 324.097656 285.425781 325.007812 285.632812 C 325.914062 285.84375 326.835938 285.96875 327.765625 286.015625 C 328.695312 286.058594 329.625 286.023438 330.546875 285.90625 C 331.472656 285.785156 332.378906 285.585938 333.269531 285.304688 C 334.15625 285.027344 335.015625 284.671875 335.839844 284.238281 C 336.667969 283.804688 337.449219 283.304688 338.183594 282.734375 C 338.921875 282.164062 339.601562 281.53125 340.226562 280.839844 C 340.851562 280.148438 341.410156 279.40625 341.902344 278.613281 C 342.332031 277.882812 342.699219 277.089844 343.0625 276.355469 L 343.125 276.355469 C 343.429688 275.625 343.613281 274.890625 343.859375 274.097656 C 344.105469 273.09375 344.253906 272.074219 344.300781 271.039062 C 344.347656 270.007812 344.292969 268.980469 344.140625 267.957031 C 343.984375 266.933594 343.734375 265.9375 343.382812 264.964844 C 343.03125 263.992188 342.589844 263.0625 342.058594 262.175781 C 341.527344 261.289062 340.914062 260.460938 340.21875 259.695312 C 339.523438 258.929688 338.761719 258.238281 337.929688 257.621094 C 337.101562 257.003906 336.21875 256.476562 335.285156 256.03125 C 334.351562 255.589844 333.382812 255.238281 332.378906 254.984375 Z M 332.378906 254.984375"/></clipPath><clipPath id="g"><path d="M 29.152344 20.898438 L 300 20.898438 L 300 353.898438 L 29.152344 353.898438 Z M 29.152344 20.898438"/></clipPath><clipPath id="h"><path d="M 286.464844 294.429688 C 285.378906 294.207031 284.28125 294.097656 283.171875 294.105469 C 282.0625 294.113281 280.96875 294.234375 279.886719 294.46875 C 278.800781 294.707031 277.753906 295.050781 276.746094 295.507812 C 275.734375 295.964844 274.78125 296.519531 273.886719 297.175781 C 267.761719 301.535156 261.316406 305.355469 254.550781 308.628906 C 247.785156 311.90625 240.792969 314.59375 233.574219 316.691406 C 226.355469 318.792969 219.011719 320.273438 211.542969 321.136719 C 204.074219 322.003906 196.585938 322.238281 189.078125 321.84375 L 186.941406 321.71875 C 180.78125 321.304688 174.675781 320.472656 168.625 319.21875 C 95.785156 304.136719 49.015625 232.882812 64.097656 160.105469 C 79.179688 87.324219 150.429688 40.496094 223.210938 55.578125 C 232.035156 57.390625 240.589844 60.066406 248.875 63.601562 C 257.160156 67.136719 265.007812 71.464844 272.421875 76.582031 L 272.484375 76.582031 C 273.375 77.410156 274.351562 78.125 275.414062 78.71875 C 276.84375 79.476562 278.347656 80.027344 279.933594 80.367188 C 280.808594 80.539062 281.691406 80.640625 282.582031 80.667969 C 283.476562 80.691406 284.363281 80.644531 285.25 80.523438 C 286.132812 80.398438 287 80.207031 287.851562 79.9375 C 288.703125 79.671875 289.527344 79.332031 290.324219 78.929688 C 291.117188 78.523438 291.875 78.054688 292.589844 77.523438 C 293.308594 76.988281 293.976562 76.402344 294.59375 75.757812 C 295.210938 75.113281 295.773438 74.421875 296.273438 73.6875 C 296.777344 72.949219 297.214844 72.171875 297.589844 71.363281 C 297.960938 70.550781 298.265625 69.714844 298.496094 68.855469 C 298.730469 67.992188 298.890625 67.117188 298.976562 66.226562 C 299.0625 65.339844 299.074219 64.449219 299.011719 63.558594 C 298.953125 62.667969 298.816406 61.789062 298.605469 60.921875 C 298.394531 60.054688 298.117188 59.210938 297.765625 58.390625 C 297.414062 57.570312 296.996094 56.78125 296.515625 56.03125 C 296.03125 55.28125 295.492188 54.574219 294.890625 53.914062 C 294.289062 53.253906 293.640625 52.648438 292.9375 52.097656 L 292.875 52.097656 L 291.835938 51.363281 L 291.59375 51.179688 C 282.300781 44.644531 272.441406 39.117188 262.011719 34.601562 C 251.585938 30.085938 240.808594 26.679688 229.683594 24.378906 C 139.683594 5.753906 51.582031 63.574219 32.898438 153.632812 C 14.214844 243.691406 72.09375 331.734375 162.152344 350.417969 C 167.722656 351.574219 173.335938 352.445312 178.996094 353.027344 C 184.652344 353.609375 190.324219 353.898438 196.015625 353.898438 C 201.703125 353.894531 207.375 353.605469 213.03125 353.019531 C 218.691406 352.4375 224.304688 351.5625 229.871094 350.402344 C 235.441406 349.242188 240.933594 347.800781 246.355469 346.078125 C 251.777344 344.351562 257.09375 342.355469 262.308594 340.082031 C 267.523438 337.8125 272.609375 335.28125 277.5625 332.488281 C 282.519531 329.695312 287.316406 326.65625 291.960938 323.367188 L 292.265625 323.1875 L 292.9375 322.636719 L 293.242188 322.453125 C 294.667969 321.289062 295.863281 319.921875 296.828125 318.351562 C 297.789062 316.78125 298.46875 315.09375 298.859375 313.292969 C 299.070312 312.269531 299.179688 311.230469 299.183594 310.183594 C 299.191406 309.136719 299.09375 308.097656 298.898438 307.070312 C 298.699219 306.042969 298.40625 305.042969 298.011719 304.070312 C 297.617188 303.101562 297.132812 302.179688 296.558594 301.300781 C 295.980469 300.425781 295.328125 299.617188 294.59375 298.867188 C 293.859375 298.121094 293.058594 297.453125 292.191406 296.863281 C 291.328125 296.273438 290.414062 295.773438 289.449219 295.363281 C 288.484375 294.957031 287.488281 294.644531 286.464844 294.429688 Z M 286.464844 294.429688"/></clipPath><clipPath id="j"><path d="M 115 84 L 296 84 L 296 287 L 115 287 Z M 115 84"/></clipPath><clipPath id="k"><path d="M 168.136719 282.398438 C 176.46875 284.730469 184.960938 285.957031 193.613281 286.082031 C 202.261719 286.203125 210.785156 285.222656 219.179688 283.132812 L 222.722656 282.15625 L 222.78125 282.15625 C 224.636719 281.625 226.472656 281.039062 228.292969 280.398438 C 230.117188 279.761719 231.914062 279.070312 233.695312 278.328125 C 235.476562 277.589844 237.234375 276.796875 238.972656 275.953125 C 240.707031 275.109375 242.414062 274.21875 244.101562 273.277344 C 245.785156 272.335938 247.441406 271.347656 249.066406 270.3125 C 250.695312 269.277344 252.289062 268.195312 253.855469 267.066406 C 255.421875 265.9375 256.953125 264.765625 258.449219 263.550781 C 259.949219 262.335938 261.410156 261.078125 262.835938 259.777344 C 264.261719 258.480469 265.648438 257.140625 266.996094 255.757812 C 268.34375 254.378906 269.652344 252.964844 270.921875 251.507812 C 272.1875 250.054688 273.414062 248.566406 274.59375 247.039062 C 275.777344 245.515625 276.914062 243.957031 278.003906 242.367188 C 279.097656 240.777344 280.144531 239.15625 281.140625 237.507812 C 282.140625 235.855469 283.09375 234.179688 283.996094 232.472656 C 284.898438 230.769531 285.75 229.039062 286.554688 227.285156 C 287.355469 225.53125 288.109375 223.757812 288.8125 221.960938 C 289.511719 220.164062 290.160156 218.347656 290.757812 216.511719 C 291.355469 214.679688 291.898438 212.828125 292.390625 210.960938 C 292.882812 209.097656 293.320312 207.21875 293.703125 205.328125 C 294.085938 203.4375 294.414062 201.539062 294.6875 199.628906 C 294.960938 197.71875 295.179688 195.800781 295.34375 193.878906 C 295.507812 191.957031 295.613281 190.03125 295.667969 188.105469 C 295.722656 186.175781 295.71875 184.246094 295.660156 182.320312 C 295.601562 180.390625 295.488281 178.464844 295.320312 176.542969 C 295.152344 174.621094 294.929688 172.707031 294.652344 170.796875 C 294.375 168.890625 294.042969 166.988281 293.652344 165.101562 C 293.265625 163.210938 292.824219 161.332031 292.328125 159.46875 C 291.835938 157.605469 291.285156 155.753906 290.683594 153.921875 C 290.082031 152.089844 289.429688 150.277344 288.722656 148.480469 C 288.019531 146.683594 287.261719 144.910156 286.453125 143.160156 C 285.648438 141.40625 284.789062 139.679688 283.882812 137.976562 C 282.976562 136.273438 282.019531 134.597656 281.019531 132.949219 C 280.015625 131.304688 278.964844 129.6875 277.871094 128.097656 C 276.773438 126.511719 275.632812 124.957031 274.449219 123.433594 C 273.261719 121.910156 272.035156 120.425781 270.765625 118.972656 C 269.492188 117.523438 268.183594 116.109375 266.828125 114.730469 C 265.476562 113.355469 264.085938 112.019531 262.660156 110.722656 C 261.230469 109.425781 259.765625 108.171875 258.265625 106.960938 C 256.765625 105.75 255.230469 104.582031 253.664062 103.457031 C 252.09375 102.332031 250.496094 101.253906 248.867188 100.222656 C 247.234375 99.191406 245.578125 98.207031 243.890625 97.269531 C 242.207031 96.332031 240.492188 95.445312 238.757812 94.605469 C 237.019531 93.765625 235.257812 92.976562 233.476562 92.242188 C 231.695312 91.503906 229.890625 90.816406 228.070312 90.183594 C 226.246094 89.550781 224.410156 88.96875 222.554688 88.441406 C 220.699219 87.910156 218.828125 87.4375 216.945312 87.015625 C 215.0625 86.59375 213.171875 86.230469 211.265625 85.917969 C 209.363281 85.605469 207.453125 85.347656 205.535156 85.144531 C 203.617188 84.941406 201.691406 84.792969 199.765625 84.703125 C 197.839844 84.609375 195.910156 84.574219 193.980469 84.59375 C 192.054688 84.613281 190.125 84.6875 188.203125 84.816406 C 186.277344 84.945312 184.355469 85.128906 182.441406 85.371094 C 180.527344 85.609375 178.621094 85.902344 176.726562 86.253906 C 174.828125 86.601562 172.941406 87.003906 171.070312 87.460938 C 169.195312 87.921875 167.335938 88.429688 165.492188 88.996094 C 163.644531 89.558594 161.820312 90.175781 160.007812 90.847656 C 158.199219 91.515625 156.410156 92.234375 154.644531 93.007812 C 152.875 93.78125 151.132812 94.601562 149.410156 95.476562 C 147.691406 96.347656 145.996094 97.269531 144.328125 98.238281 C 142.660156 99.207031 141.023438 100.222656 139.414062 101.289062 C 137.804688 102.351562 136.226562 103.460938 134.679688 104.613281 C 133.132812 105.769531 131.625 106.964844 130.148438 108.207031 C 128.667969 109.449219 127.230469 110.730469 125.828125 112.054688 C 124.421875 113.378906 123.058594 114.742188 121.734375 116.144531 L 119.109375 119.074219 C 118.761719 119.515625 118.457031 119.984375 118.191406 120.480469 C 117.6875 121.363281 117.261719 122.28125 116.921875 123.238281 C 116.578125 124.195312 116.324219 125.175781 116.160156 126.179688 C 115.992188 127.183594 115.914062 128.195312 115.929688 129.210938 C 115.941406 130.226562 116.046875 131.234375 116.238281 132.234375 C 116.433594 133.230469 116.710938 134.207031 117.078125 135.152344 C 117.445312 136.101562 117.894531 137.011719 118.421875 137.878906 C 118.953125 138.746094 119.554688 139.5625 120.226562 140.324219 C 120.902344 141.085938 121.640625 141.78125 122.4375 142.410156 C 123.238281 143.039062 124.085938 143.59375 124.980469 144.070312 C 125.878906 144.550781 126.8125 144.945312 127.78125 145.257812 C 128.746094 145.566406 129.734375 145.792969 130.742188 145.925781 C 131.75 146.0625 132.761719 146.109375 133.777344 146.0625 C 134.792969 146.019531 135.796875 145.882812 136.789062 145.660156 C 137.78125 145.4375 138.746094 145.125 139.683594 144.730469 C 140.621094 144.332031 141.515625 143.859375 142.367188 143.300781 C 143.21875 142.746094 144.011719 142.121094 144.753906 141.421875 L 146.339844 139.652344 C 147.707031 138.195312 149.136719 136.804688 150.625 135.476562 C 152.117188 134.148438 153.664062 132.890625 155.269531 131.699219 C 156.871094 130.511719 158.527344 129.398438 160.230469 128.355469 C 161.933594 127.316406 163.683594 126.355469 165.472656 125.472656 C 167.261719 124.589844 169.089844 123.785156 170.953125 123.066406 C 172.8125 122.347656 174.703125 121.710938 176.625 121.164062 C 178.542969 120.613281 180.484375 120.148438 182.445312 119.773438 C 184.40625 119.398438 186.378906 119.109375 188.363281 118.914062 C 190.351562 118.714844 192.34375 118.605469 194.339844 118.585938 C 196.335938 118.566406 198.328125 118.632812 200.320312 118.792969 C 202.308594 118.953125 204.289062 119.199219 206.257812 119.535156 C 208.222656 119.871094 210.171875 120.296875 212.101562 120.808594 C 214.03125 121.320312 215.9375 121.917969 217.8125 122.597656 C 219.6875 123.28125 221.53125 124.046875 223.339844 124.894531 C 225.144531 125.742188 226.910156 126.667969 228.636719 127.675781 C 230.359375 128.679688 232.035156 129.761719 233.664062 130.917969 C 235.292969 132.074219 236.863281 133.300781 238.378906 134.601562 C 239.898438 135.898438 241.355469 137.261719 242.75 138.6875 C 244.144531 140.117188 245.472656 141.605469 246.734375 143.152344 C 247.996094 144.699219 249.183594 146.300781 250.300781 147.957031 C 251.417969 149.609375 252.460938 151.3125 253.425781 153.058594 C 254.390625 154.804688 255.277344 156.59375 256.082031 158.421875 C 256.886719 160.25 257.605469 162.109375 258.242188 164 C 258.882812 165.890625 259.433594 167.808594 259.898438 169.75 C 260.363281 171.691406 260.742188 173.648438 261.03125 175.625 C 261.324219 177.601562 261.523438 179.585938 261.636719 181.578125 C 261.746094 183.570312 261.769531 185.566406 261.703125 187.5625 C 261.636719 189.554688 261.476562 191.542969 261.234375 193.527344 C 260.988281 195.507812 260.652344 197.472656 260.230469 199.425781 C 259.808594 201.375 259.300781 203.304688 258.707031 205.210938 C 258.109375 207.117188 257.429688 208.992188 256.667969 210.835938 C 255.902344 212.679688 255.058594 214.488281 254.132812 216.257812 C 253.207031 218.027344 252.203125 219.75 251.125 221.429688 C 250.042969 223.105469 248.890625 224.734375 247.664062 226.308594 C 246.4375 227.886719 245.144531 229.402344 243.78125 230.863281 C 242.417969 232.320312 240.992188 233.714844 239.503906 235.046875 C 238.015625 236.378906 236.472656 237.640625 234.871094 238.832031 C 233.269531 240.027344 231.621094 241.144531 229.917969 242.1875 C 228.214844 243.234375 226.472656 244.199219 224.683594 245.085938 C 222.894531 245.976562 221.070312 246.78125 219.210938 247.503906 C 217.347656 248.230469 215.460938 248.867188 213.542969 249.421875 C 211.625 249.976562 209.683594 250.445312 207.726562 250.828125 C 205.765625 251.207031 203.792969 251.5 201.804688 251.703125 C 199.820312 251.90625 197.828125 252.019531 195.832031 252.042969 C 193.835938 252.070312 191.84375 252.003906 189.851562 251.851562 C 187.863281 251.695312 185.882812 251.453125 183.914062 251.121094 C 181.945312 250.789062 179.996094 250.371094 178.0625 249.863281 C 176.132812 249.355469 174.226562 248.765625 172.351562 248.085938 C 164.019531 245.109375 156.589844 240.632812 150.066406 234.65625 C 150.003906 234.65625 150.003906 234.65625 150.003906 234.59375 L 148.597656 233.3125 C 147.835938 232.652344 147.019531 232.0625 146.15625 231.539062 C 145.285156 231.027344 144.378906 230.597656 143.429688 230.246094 C 142.480469 229.898438 141.511719 229.632812 140.515625 229.457031 C 139.523438 229.277344 138.519531 229.191406 137.507812 229.191406 C 136.5 229.191406 135.496094 229.28125 134.503906 229.460938 C 133.507812 229.640625 132.539062 229.90625 131.589844 230.257812 C 130.644531 230.609375 129.734375 231.042969 128.867188 231.558594 C 127.996094 232.070312 127.179688 232.65625 126.414062 233.316406 C 125.648438 233.976562 124.945312 234.695312 124.308594 235.480469 C 123.671875 236.265625 123.109375 237.097656 122.621094 237.980469 C 122.128906 238.867188 121.722656 239.785156 121.398438 240.742188 C 121.074219 241.699219 120.835938 242.675781 120.683594 243.675781 C 120.53125 244.671875 120.46875 245.679688 120.496094 246.6875 C 120.523438 247.699219 120.640625 248.695312 120.847656 249.6875 C 121.050781 250.675781 121.34375 251.636719 121.71875 252.574219 C 122.09375 253.511719 122.550781 254.410156 123.085938 255.265625 C 123.625 256.121094 124.230469 256.925781 124.910156 257.671875 C 125.484375 258.382812 126.136719 259.011719 126.863281 259.566406 L 126.925781 259.566406 C 132.789062 264.953125 139.203125 269.578125 146.171875 273.4375 C 153.136719 277.296875 160.460938 280.285156 168.136719 282.398438 Z M 168.136719 282.398438"/></clipPath><clipPath id="m"><path d="M 94 155 L 226 155 L 226 215 L 94 215 Z M 94 155"/></clipPath><clipPath id="n"><path d="M 225.101562 181.230469 C 224.878906 179.570312 224.519531 177.945312 224.023438 176.347656 C 223.523438 174.75 222.894531 173.203125 222.136719 171.710938 C 221.378906 170.222656 220.5 168.804688 219.5 167.460938 C 218.503906 166.117188 217.398438 164.867188 216.191406 163.710938 C 214.980469 162.554688 213.683594 161.507812 212.296875 160.570312 C 210.914062 159.628906 209.457031 158.816406 207.933594 158.125 C 206.410156 157.429688 204.839844 156.871094 203.222656 156.445312 C 201.605469 156.019531 199.960938 155.730469 198.296875 155.578125 C 196.628906 155.429688 194.960938 155.421875 193.292969 155.550781 C 191.625 155.683594 189.980469 155.953125 188.355469 156.363281 C 186.734375 156.773438 185.15625 157.316406 183.625 157.992188 C 182.097656 158.667969 180.632812 159.46875 179.238281 160.390625 C 177.839844 161.3125 176.53125 162.347656 175.308594 163.488281 C 174.089844 164.632812 172.972656 165.871094 171.960938 167.203125 C 170.945312 168.535156 170.054688 169.945312 169.277344 171.425781 C 168.503906 172.910156 167.859375 174.449219 167.34375 176.039062 C 161.480469 179.335938 153.421875 181.351562 144.449219 181.351562 C 136.753906 181.351562 129.671875 179.824219 124.117188 177.324219 C 122.703125 174.898438 120.769531 173.003906 118.316406 171.644531 C 117.105469 170.9375 115.824219 170.40625 114.46875 170.058594 C 113.664062 169.875 112.851562 169.753906 112.027344 169.691406 C 110.90625 169.582031 109.785156 169.59375 108.667969 169.726562 C 107.546875 169.859375 106.457031 170.109375 105.390625 170.480469 C 104.328125 170.847656 103.316406 171.324219 102.355469 171.914062 C 101.394531 172.5 100.507812 173.183594 99.691406 173.964844 L 99.632812 173.964844 L 98.472656 175.246094 C 97.851562 175.9375 97.324219 176.691406 96.882812 177.507812 C 96.371094 178.40625 95.953125 179.347656 95.628906 180.328125 C 95.300781 181.3125 95.074219 182.316406 94.945312 183.34375 C 94.816406 184.371094 94.789062 185.402344 94.867188 186.433594 C 94.941406 187.464844 95.117188 188.480469 95.390625 189.480469 C 95.664062 190.476562 96.035156 191.4375 96.5 192.363281 C 96.964844 193.289062 97.515625 194.160156 98.152344 194.976562 C 98.789062 195.792969 99.496094 196.539062 100.28125 197.21875 C 101.066406 197.894531 101.90625 198.488281 102.808594 198.996094 C 104.207031 199.792969 105.691406 200.355469 107.265625 200.6875 C 108.839844 201.023438 110.425781 201.109375 112.027344 200.953125 C 112.851562 200.867188 113.664062 200.726562 114.46875 200.523438 C 117.007812 199.886719 119.25 198.683594 121.183594 196.921875 L 122.957031 195.027344 C 122.957031 194.988281 122.976562 194.96875 123.015625 194.96875 L 124.117188 193.320312 C 129.671875 190.753906 136.753906 189.230469 144.449219 189.230469 C 153.421875 189.230469 161.480469 191.242188 167.34375 194.601562 C 167.636719 195.46875 167.972656 196.316406 168.34375 197.152344 C 168.714844 197.988281 169.125 198.804688 169.574219 199.601562 C 170.019531 200.398438 170.503906 201.175781 171.023438 201.929688 C 171.539062 202.679688 172.09375 203.410156 172.679688 204.109375 C 173.265625 204.8125 173.882812 205.488281 174.527344 206.132812 C 175.175781 206.777344 175.851562 207.390625 176.558594 207.972656 C 177.261719 208.558594 177.992188 209.105469 178.746094 209.625 C 179.5 210.140625 180.277344 210.621094 181.078125 211.0625 C 181.875 211.507812 182.695312 211.914062 183.53125 212.285156 C 184.367188 212.652344 185.21875 212.984375 186.085938 213.273438 C 186.953125 213.5625 187.832031 213.816406 188.722656 214.023438 C 189.613281 214.234375 190.507812 214.402344 191.414062 214.53125 C 192.320312 214.65625 193.230469 214.742188 194.144531 214.785156 C 195.054688 214.828125 195.96875 214.832031 196.882812 214.789062 C 197.796875 214.75 198.707031 214.667969 199.613281 214.542969 C 200.519531 214.417969 201.417969 214.253906 202.308594 214.042969 C 203.199219 213.835938 204.078125 213.589844 204.945312 213.300781 C 205.8125 213.015625 206.664062 212.6875 207.503906 212.320312 C 208.339844 211.953125 209.160156 211.550781 209.960938 211.105469 C 210.761719 210.664062 211.539062 210.1875 212.296875 209.671875 C 213.050781 209.160156 213.785156 208.613281 214.488281 208.03125 C 215.195312 207.449219 215.875 206.839844 216.523438 206.195312 C 217.171875 205.550781 217.792969 204.878906 218.378906 204.179688 C 218.96875 203.480469 219.523438 202.753906 220.042969 202 C 220.5625 201.25 221.050781 200.476562 221.5 199.679688 C 221.949219 198.882812 222.363281 198.070312 222.734375 197.234375 C 223.109375 196.402344 223.445312 195.550781 223.742188 194.6875 C 224.039062 193.820312 224.296875 192.945312 224.511719 192.054688 C 224.726562 191.167969 224.902344 190.269531 225.035156 189.367188 C 225.167969 188.460938 225.261719 187.554688 225.308594 186.640625 C 225.359375 185.726562 225.367188 184.8125 225.332031 183.898438 C 225.296875 182.984375 225.222656 182.074219 225.101562 181.167969 Z M 225.101562 181.230469"/></clipPath><linearGradient x1="703.084" gradientTransform="matrix(.59788 .12381 -.12381 .59788 -85.43 -94.499)" xmlns:xlink="http://www.w3.org/1999/xlink" y1="189.63" x2="764.07" gradientUnits="userSpaceOnUse" y2="189.63" xlink:type="simple" xlink:actuate="onLoad" id="c" xlink:show="other"><stop stop-color="#2771E0" offset="0"/><stop stop-color="#2771E0" offset=".063"/><stop stop-color="#2771E0" offset=".094"/><stop stop-color="#2870DF" offset=".109"/><stop stop-color="#286FDE" offset=".125"/><stop stop-color="#296EDE" offset=".141"/><stop stop-color="#296DDD" offset=".156"/><stop stop-color="#2A6DDD" offset=".172"/><stop stop-color="#2A6CDC" offset=".188"/><stop stop-color="#2B6BDB" offset=".203"/><stop stop-color="#2B6ADB" offset=".219"/><stop stop-color="#2C69DA" offset=".234"/><stop stop-color="#2C69DA" offset=".25"/><stop stop-color="#2D68D9" offset=".258"/><stop stop-color="#2D68D9" offset=".266"/><stop stop-color="#2E67D8" offset=".273"/><stop stop-color="#2E66D8" offset=".281"/><stop stop-color="#2E66D7" offset=".289"/><stop stop-color="#2F65D7" offset=".297"/><stop stop-color="#2F64D6" offset=".305"/><stop stop-color="#2F64D6" offset=".313"/><stop stop-color="#3063D6" offset=".32"/><stop stop-color="#3062D5" offset=".328"/><stop stop-color="#3162D5" offset=".336"/><stop stop-color="#3161D4" offset=".344"/><stop stop-color="#3160D4" offset=".352"/><stop stop-color="#3260D3" offset=".359"/><stop stop-color="#325FD3" offset=".367"/><stop stop-color="#335ED3" offset=".375"/><stop stop-color="#335ED2" offset=".383"/><stop stop-color="#335DD2" offset=".391"/><stop stop-color="#345CD1" offset=".398"/><stop stop-color="#345BD1" offset=".406"/><stop stop-color="#355BD0" offset=".414"/><stop stop-color="#355AD0" offset=".422"/><stop stop-color="#3559CF" offset=".43"/><stop stop-color="#3659CF" offset=".438"/><stop stop-color="#3658CF" offset=".445"/><stop stop-color="#3657CE" offset=".453"/><stop stop-color="#3757CE" offset=".461"/><stop stop-color="#3756CD" offset=".469"/><stop stop-color="#3855CD" offset=".477"/><stop stop-color="#3855CC" offset=".484"/><stop stop-color="#3854CC" offset=".492"/><stop stop-color="#3953CC" offset=".5"/><stop stop-color="#3953CB" offset=".508"/><stop stop-color="#3A52CB" offset=".516"/><stop stop-color="#3A51CA" offset=".523"/><stop stop-color="#3A51CA" offset=".531"/><stop stop-color="#3B50C9" offset=".539"/><stop stop-color="#3B4FC9" offset=".547"/><stop stop-color="#3B4FC8" offset=".555"/><stop stop-color="#3C4EC8" offset=".563"/><stop stop-color="#3C4DC7" offset=".57"/><stop stop-color="#3D4DC7" offset=".578"/><stop stop-color="#3D4CC6" offset=".586"/><stop stop-color="#3E4BC6" offset=".594"/><stop stop-color="#3E4AC5" offset=".602"/><stop stop-color="#3F49C4" offset=".609"/><stop stop-color="#3F48C4" offset=".617"/><stop stop-color="#4047C3" offset=".625"/><stop stop-color="#4047C3" offset=".633"/><stop stop-color="#4146C2" offset=".641"/><stop stop-color="#4145C1" offset=".648"/><stop stop-color="#4244C1" offset=".656"/><stop stop-color="#4243C0" offset=".664"/><stop stop-color="#4342C0" offset=".672"/><stop stop-color="#4342BF" offset=".68"/><stop stop-color="#4441BE" offset=".688"/><stop stop-color="#4440BE" offset=".695"/><stop stop-color="#453FBD" offset=".703"/><stop stop-color="#453EBD" offset=".711"/><stop stop-color="#463DBC" offset=".719"/><stop stop-color="#463DBB" offset=".727"/><stop stop-color="#473CBB" offset=".734"/><stop stop-color="#473BBA" offset=".742"/><stop stop-color="#483ABA" offset=".75"/><stop stop-color="#4839B9" offset=".758"/><stop stop-color="#4938B8" offset=".766"/><stop stop-color="#4938B8" offset=".773"/><stop stop-color="#4A37B7" offset=".781"/><stop stop-color="#4A36B7" offset=".789"/><stop stop-color="#4B35B6" offset=".797"/><stop stop-color="#4B34B6" offset=".805"/><stop stop-color="#4C33B5" offset=".813"/><stop stop-color="#4C33B4" offset=".82"/><stop stop-color="#4D32B4" offset=".828"/><stop stop-color="#4D31B3" offset=".836"/><stop stop-color="#4E30B3" offset=".844"/><stop stop-color="#4E2FB2" offset=".852"/><stop stop-color="#4F2EB1" offset=".859"/><stop stop-color="#4F2DB1" offset=".867"/><stop stop-color="#502DB0" offset=".875"/><stop stop-color="#502CB0" offset=".883"/><stop stop-color="#512BAF" offset=".891"/><stop stop-color="#512AAE" offset=".898"/><stop stop-color="#5229AE" offset=".906"/><stop stop-color="#5228AD" offset=".914"/><stop stop-color="#5328AD" offset=".922"/><stop stop-color="#5327AC" offset=".938"/><stop stop-color="#5327AC" offset="1"/></linearGradient><linearGradient x1="754.53" gradientTransform="matrix(.59788 .12381 -.12381 .59788 -85.43 -94.499)" xmlns:xlink="http://www.w3.org/1999/xlink" y1="447.44" x2="815.672" gradientUnits="userSpaceOnUse" y2="447.44" xlink:type="simple" xlink:actuate="onLoad" id="f" xlink:show="other"><stop stop-color="#2771E0" offset="0"/><stop stop-color="#2771E0" offset=".063"/><stop stop-color="#2771E0" offset=".094"/><stop stop-color="#2870DF" offset=".109"/><stop stop-color="#286FDE" offset=".125"/><stop stop-color="#296EDE" offset=".141"/><stop stop-color="#296EDD" offset=".156"/><stop stop-color="#2A6DDD" offset=".172"/><stop stop-color="#2A6CDC" offset=".188"/><stop stop-color="#2B6BDB" offset=".203"/><stop stop-color="#2B6ADB" offset=".219"/><stop stop-color="#2C6ADA" offset=".234"/><stop stop-color="#2C69DA" offset=".25"/><stop stop-color="#2D68D9" offset=".258"/><stop stop-color="#2D68D9" offset=".266"/><stop stop-color="#2E67D8" offset=".273"/><stop stop-color="#2E66D8" offset=".281"/><stop stop-color="#2E66D7" offset=".289"/><stop stop-color="#2F65D7" offset=".297"/><stop stop-color="#2F64D7" offset=".305"/><stop stop-color="#2F64D6" offset=".313"/><stop stop-color="#3063D6" offset=".32"/><stop stop-color="#3062D5" offset=".328"/><stop stop-color="#3162D5" offset=".336"/><stop stop-color="#3161D4" offset=".344"/><stop stop-color="#3160D4" offset=".352"/><stop stop-color="#3260D3" offset=".359"/><stop stop-color="#325FD3" offset=".367"/><stop stop-color="#335ED3" offset=".375"/><stop stop-color="#335ED2" offset=".383"/><stop stop-color="#335DD2" offset=".391"/><stop stop-color="#345CD1" offset=".398"/><stop stop-color="#345CD1" offset=".406"/><stop stop-color="#345BD0" offset=".414"/><stop stop-color="#355AD0" offset=".422"/><stop stop-color="#355AD0" offset=".43"/><stop stop-color="#3659CF" offset=".438"/><stop stop-color="#3658CF" offset=".445"/><stop stop-color="#3658CE" offset=".453"/><stop stop-color="#3757CE" offset=".461"/><stop stop-color="#3756CD" offset=".469"/><stop stop-color="#3856CD" offset=".477"/><stop stop-color="#3855CC" offset=".484"/><stop stop-color="#3854CC" offset=".492"/><stop stop-color="#3954CC" offset=".5"/><stop stop-color="#3953CB" offset=".508"/><stop stop-color="#3A52CB" offset=".516"/><stop stop-color="#3A52CA" offset=".523"/><stop stop-color="#3A51CA" offset=".531"/><stop stop-color="#3B50C9" offset=".539"/><stop stop-color="#3B50C9" offset=".547"/><stop stop-color="#3B4FC8" offset=".555"/><stop stop-color="#3C4EC8" offset=".563"/><stop stop-color="#3C4DC7" offset=".57"/><stop stop-color="#3D4DC7" offset=".578"/><stop stop-color="#3D4CC6" offset=".586"/><stop stop-color="#3E4BC6" offset=".594"/><stop stop-color="#3E4AC5" offset=".602"/><stop stop-color="#3F49C4" offset=".609"/><stop stop-color="#3F48C4" offset=".617"/><stop stop-color="#4048C3" offset=".625"/><stop stop-color="#4047C3" offset=".633"/><stop stop-color="#4146C2" offset=".641"/><stop stop-color="#4145C1" offset=".648"/><stop stop-color="#4244C1" offset=".656"/><stop stop-color="#4243C0" offset=".664"/><stop stop-color="#4342C0" offset=".672"/><stop stop-color="#4342BF" offset=".68"/><stop stop-color="#4441BE" offset=".688"/><stop stop-color="#4440BE" offset=".695"/><stop stop-color="#453FBD" offset=".703"/><stop stop-color="#453EBD" offset=".711"/><stop stop-color="#463DBC" offset=".719"/><stop stop-color="#463DBB" offset=".727"/><stop stop-color="#473CBB" offset=".734"/><stop stop-color="#473BBA" offset=".742"/><stop stop-color="#483ABA" offset=".75"/><stop stop-color="#4839B9" offset=".758"/><stop stop-color="#4938B9" offset=".766"/><stop stop-color="#4938B8" offset=".773"/><stop stop-color="#4A37B7" offset=".781"/><stop stop-color="#4A36B7" offset=".789"/><stop stop-color="#4B35B6" offset=".797"/><stop stop-color="#4B34B6" offset=".805"/><stop stop-color="#4C33B5" offset=".813"/><stop stop-color="#4C33B4" offset=".82"/><stop stop-color="#4D32B4" offset=".828"/><stop stop-color="#4D31B3" offset=".836"/><stop stop-color="#4E30B3" offset=".844"/><stop stop-color="#4E2FB2" offset=".852"/><stop stop-color="#4F2EB1" offset=".859"/><stop stop-color="#4F2DB1" offset=".867"/><stop stop-color="#502DB0" offset=".875"/><stop stop-color="#502CB0" offset=".883"/><stop stop-color="#512BAF" offset=".891"/><stop stop-color="#512AAE" offset=".898"/><stop stop-color="#5229AE" offset=".906"/><stop stop-color="#5228AD" offset=".914"/><stop stop-color="#5328AD" offset=".922"/><stop stop-color="#5327AC" offset=".938"/><stop stop-color="#5327AC" offset="1"/></linearGradient><linearGradient x1="313.068" gradientTransform="matrix(.59788 .12381 -.12381 .59788 -85.43 -94.499)" xmlns:xlink="http://www.w3.org/1999/xlink" y1="4.803" x2="719.087" gradientUnits="userSpaceOnUse" y2="708.044" xlink:type="simple" xlink:actuate="onLoad" id="i" xlink:show="other"><stop stop-color="#0091D4" offset="0"/><stop stop-color="#0091D4" offset=".125"/><stop stop-color="#0091D4" offset=".188"/><stop stop-color="#0092D4" offset=".203"/><stop stop-color="#0092D4" offset=".219"/><stop stop-color="#0093D4" offset=".234"/><stop stop-color="#0094D3" offset=".25"/><stop stop-color="#0094D3" offset=".266"/><stop stop-color="#0095D3" offset=".281"/><stop stop-color="#0096D3" offset=".297"/><stop stop-color="#0096D3" offset=".313"/><stop stop-color="#0097D3" offset=".328"/><stop stop-color="#0098D3" offset=".335"/><stop stop-color="#0098D2" offset=".344"/><stop stop-color="#0099D2" offset=".359"/><stop stop-color="#0099D2" offset=".375"/><stop stop-color="#009AD2" offset=".391"/><stop stop-color="#009BD2" offset=".398"/><stop stop-color="#009BD2" offset=".406"/><stop stop-color="#009CD2" offset=".414"/><stop stop-color="#009CD2" offset=".422"/><stop stop-color="#009DD1" offset=".43"/><stop stop-color="#009ED1" offset=".438"/><stop stop-color="#009ED1" offset=".445"/><stop stop-color="#009FD1" offset=".453"/><stop stop-color="#009FD1" offset=".461"/><stop stop-color="#00A0D1" offset=".469"/><stop stop-color="#00A1D1" offset=".477"/><stop stop-color="#00A1D0" offset=".484"/><stop stop-color="#00A2D0" offset=".492"/><stop stop-color="#00A2D0" offset=".5"/><stop stop-color="#00A3D0" offset=".508"/><stop stop-color="#00A4D0" offset=".516"/><stop stop-color="#00A4D0" offset=".523"/><stop stop-color="#00A5D0" offset=".531"/><stop stop-color="#00A5CF" offset=".539"/><stop stop-color="#00A6CF" offset=".547"/><stop stop-color="#00A7CF" offset=".555"/><stop stop-color="#00A7CF" offset=".563"/><stop stop-color="#00A8CF" offset=".57"/><stop stop-color="#00A8CF" offset=".578"/><stop stop-color="#00A9CF" offset=".586"/><stop stop-color="#00AACE" offset=".594"/><stop stop-color="#00AACE" offset=".602"/><stop stop-color="#00ABCE" offset=".609"/><stop stop-color="#00ABCE" offset=".617"/><stop stop-color="#00ACCE" offset=".625"/><stop stop-color="#00ACCE" offset=".633"/><stop stop-color="#00ADCE" offset=".641"/><stop stop-color="#00AECD" offset=".648"/><stop stop-color="#00AECD" offset=".656"/><stop stop-color="#00AFCD" offset=".664"/><stop stop-color="#00AFCD" offset=".665"/><stop stop-color="#00B0CD" offset=".672"/><stop stop-color="#00B0CD" offset=".68"/><stop stop-color="#00B1CD" offset=".688"/><stop stop-color="#00B1CD" offset=".695"/><stop stop-color="#00B2CD" offset=".703"/><stop stop-color="#00B2CC" offset=".711"/><stop stop-color="#00B3CC" offset=".719"/><stop stop-color="#00B4CC" offset=".727"/><stop stop-color="#00B4CC" offset=".734"/><stop stop-color="#00B5CC" offset=".742"/><stop stop-color="#00B6CC" offset=".75"/><stop stop-color="#00B6CB" offset=".758"/><stop stop-color="#00B7CB" offset=".766"/><stop stop-color="#00B8CB" offset=".773"/><stop stop-color="#00B8CB" offset=".781"/><stop stop-color="#00B9CB" offset=".789"/><stop stop-color="#00BACA" offset=".797"/><stop stop-color="#00BACA" offset=".805"/><stop stop-color="#00BBCA" offset=".813"/><stop stop-color="#00BCCA" offset=".82"/><stop stop-color="#00BCCA" offset=".828"/><stop stop-color="#00BDCA" offset=".836"/><stop stop-color="#00BEC9" offset=".844"/><stop stop-color="#00BEC9" offset=".852"/><stop stop-color="#00BFC9" offset=".859"/><stop stop-color="#00BFC9" offset=".875"/><stop stop-color="#00BFC9" offset="1"/></linearGradient><linearGradient x1="-589.343" gradientTransform="matrix(-.28476 .5401 -.5401 -.28476 292.449 649.714)" xmlns:xlink="http://www.w3.org/1999/xlink" y1="264.87" x2="-606.946" gradientUnits="userSpaceOnUse" y2="696.198" xlink:type="simple" xlink:actuate="onLoad" id="l" xlink:show="other"><stop stop-color="#00B6F3" offset="0"/><stop stop-color="#00B6F3" offset=".041"/><stop stop-color="#00B6F3" offset=".125"/><stop stop-color="#00B6F3" offset=".156"/><stop stop-color="#00B6F3" offset=".172"/><stop stop-color="#00B6F2" offset=".188"/><stop stop-color="#00B6F1" offset=".203"/><stop stop-color="#00B6F1" offset=".219"/><stop stop-color="#00B6F0" offset=".234"/><stop stop-color="#00B6F0" offset=".25"/><stop stop-color="#00B6EF" offset=".266"/><stop stop-color="#00B6EF" offset=".281"/><stop stop-color="#00B6EE" offset=".297"/><stop stop-color="#00B5EE" offset=".313"/><stop stop-color="#00B5ED" offset=".328"/><stop stop-color="#00B5EC" offset=".344"/><stop stop-color="#00B5EC" offset=".359"/><stop stop-color="#00B5EB" offset=".375"/><stop stop-color="#00B5EB" offset=".391"/><stop stop-color="#00B5EA" offset=".406"/><stop stop-color="#00B5E9" offset=".422"/><stop stop-color="#00B5E8" offset=".438"/><stop stop-color="#00B5E7" offset=".453"/><stop stop-color="#00B4E6" offset=".469"/><stop stop-color="#00B4E5" offset=".484"/><stop stop-color="#00B4E4" offset=".5"/><stop stop-color="#00B4E3" offset=".516"/><stop stop-color="#00B4E2" offset=".531"/><stop stop-color="#00B4E1" offset=".547"/><stop stop-color="#00B4E0" offset=".563"/><stop stop-color="#00B3DF" offset=".578"/><stop stop-color="#00B3DE" offset=".594"/><stop stop-color="#00B3DD" offset=".609"/><stop stop-color="#00B3DC" offset=".625"/><stop stop-color="#00B3DB" offset=".641"/><stop stop-color="#00B3DA" offset=".656"/><stop stop-color="#00B2D9" offset=".672"/><stop stop-color="#00B2D8" offset=".688"/><stop stop-color="#00B2D7" offset=".703"/><stop stop-color="#00B2D6" offset=".719"/><stop stop-color="#00B2D5" offset=".734"/><stop stop-color="#00B2D4" offset=".75"/><stop stop-color="#00B2D3" offset=".766"/><stop stop-color="#00B1D2" offset=".781"/><stop stop-color="#00B1D1" offset=".797"/><stop stop-color="#00B1D1" offset=".805"/><stop stop-color="#00B1D0" offset=".813"/><stop stop-color="#00B1D0" offset=".82"/><stop stop-color="#00B1CF" offset=".828"/><stop stop-color="#00B1CF" offset=".836"/><stop stop-color="#00B1CE" offset=".844"/><stop stop-color="#00B1CD" offset=".852"/><stop stop-color="#00B1CD" offset=".859"/><stop stop-color="#00B0CC" offset=".867"/><stop stop-color="#00B0CC" offset=".875"/><stop stop-color="#00B0CB" offset=".883"/><stop stop-color="#00B0CB" offset=".891"/><stop stop-color="#00B0CA" offset=".898"/><stop stop-color="#00B0C9" offset=".906"/><stop stop-color="#00B0C9" offset=".938"/><stop stop-color="#00B0C9" offset=".959"/><stop stop-color="#00B0C9" offset="1"/></linearGradient><linearGradient x1="372.044" gradientTransform="matrix(.59788 .12381 -.12381 .59788 -85.43 -94.499)" xmlns:xlink="http://www.w3.org/1999/xlink" y1="481.63" x2="601.194" gradientUnits="userSpaceOnUse" y2="481.63" xlink:type="simple" xlink:actuate="onLoad" id="o" xlink:show="other"><stop stop-color="#2771E0" offset="0"/><stop stop-color="#2771E0" offset=".125"/><stop stop-color="#2771E0" offset=".156"/><stop stop-color="#2770DF" offset=".172"/><stop stop-color="#2870DF" offset=".188"/><stop stop-color="#286FDE" offset=".203"/><stop stop-color="#296EDE" offset=".219"/><stop stop-color="#296DDD" offset=".234"/><stop stop-color="#2A6DDD" offset=".25"/><stop stop-color="#2A6CDC" offset=".266"/><stop stop-color="#2B6BDC" offset=".281"/><stop stop-color="#2B6BDB" offset=".297"/><stop stop-color="#2C6ADA" offset=".313"/><stop stop-color="#2C69DA" offset=".328"/><stop stop-color="#2D68D9" offset=".344"/><stop stop-color="#2D68D9" offset=".352"/><stop stop-color="#2D67D8" offset=".359"/><stop stop-color="#2E67D8" offset=".367"/><stop stop-color="#2E66D8" offset=".375"/><stop stop-color="#2E65D7" offset=".383"/><stop stop-color="#2F65D7" offset=".391"/><stop stop-color="#2F64D6" offset=".398"/><stop stop-color="#2F64D6" offset=".406"/><stop stop-color="#3063D6" offset=".414"/><stop stop-color="#3062D5" offset=".422"/><stop stop-color="#3162D5" offset=".43"/><stop stop-color="#3161D4" offset=".438"/><stop stop-color="#3161D4" offset=".445"/><stop stop-color="#3260D4" offset=".453"/><stop stop-color="#325FD3" offset=".461"/><stop stop-color="#325FD3" offset=".469"/><stop stop-color="#335ED2" offset=".477"/><stop stop-color="#335ED2" offset=".484"/><stop stop-color="#335DD2" offset=".492"/><stop stop-color="#345CD1" offset=".5"/><stop stop-color="#345CD1" offset=".508"/><stop stop-color="#345BD1" offset=".516"/><stop stop-color="#355BD0" offset=".523"/><stop stop-color="#355AD0" offset=".531"/><stop stop-color="#3559CF" offset=".539"/><stop stop-color="#3659CF" offset=".547"/><stop stop-color="#3658CF" offset=".555"/><stop stop-color="#3657CE" offset=".563"/><stop stop-color="#3757CE" offset=".57"/><stop stop-color="#3756CD" offset=".578"/><stop stop-color="#3856CD" offset=".586"/><stop stop-color="#3855CD" offset=".594"/><stop stop-color="#3854CC" offset=".602"/><stop stop-color="#3954CC" offset=".609"/><stop stop-color="#3953CB" offset=".617"/><stop stop-color="#3953CB" offset=".625"/><stop stop-color="#3A52CB" offset=".633"/><stop stop-color="#3A51CA" offset=".641"/><stop stop-color="#3A51CA" offset=".648"/><stop stop-color="#3B50C9" offset=".656"/><stop stop-color="#3B50C9" offset=".664"/><stop stop-color="#3B4FC9" offset=".672"/><stop stop-color="#3C4EC8" offset=".68"/><stop stop-color="#3C4EC8" offset=".688"/><stop stop-color="#3D4DC7" offset=".695"/><stop stop-color="#3D4CC7" offset=".703"/><stop stop-color="#3D4BC6" offset=".711"/><stop stop-color="#3E4BC6" offset=".719"/><stop stop-color="#3E4AC5" offset=".727"/><stop stop-color="#3F49C4" offset=".734"/><stop stop-color="#3F48C4" offset=".742"/><stop stop-color="#4048C3" offset=".75"/><stop stop-color="#4047C3" offset=".758"/><stop stop-color="#4146C2" offset=".766"/><stop stop-color="#4145C2" offset=".773"/><stop stop-color="#4145C1" offset=".781"/><stop stop-color="#4244C1" offset=".789"/><stop stop-color="#4243C0" offset=".797"/><stop stop-color="#4342C0" offset=".805"/><stop stop-color="#4342BF" offset=".813"/><stop stop-color="#4441BF" offset=".82"/><stop stop-color="#4440BE" offset=".828"/><stop stop-color="#453FBD" offset=".836"/><stop stop-color="#453FBD" offset=".844"/><stop stop-color="#453EBC" offset=".852"/><stop stop-color="#463DBC" offset=".859"/><stop stop-color="#463CBB" offset=".867"/><stop stop-color="#473CBB" offset=".875"/><stop stop-color="#473BBA" offset=".883"/><stop stop-color="#483ABA" offset=".891"/><stop stop-color="#4839B9" offset=".898"/><stop stop-color="#4938B9" offset=".906"/><stop stop-color="#4938B8" offset=".914"/><stop stop-color="#4937B7" offset=".922"/><stop stop-color="#4A36B7" offset=".93"/><stop stop-color="#4A35B6" offset=".938"/><stop stop-color="#4B35B6" offset=".945"/><stop stop-color="#4B34B5" offset=".953"/><stop stop-color="#4C33B5" offset=".961"/><stop stop-color="#4C32B4" offset=".969"/><stop stop-color="#4D32B4" offset=".977"/><stop stop-color="#4D31B3" offset=".984"/><stop stop-color="#4E30B3" offset=".992"/><stop stop-color="#4E2FB2" offset="1"/></linearGradient></defs><g clip-path="url(#a)"><g clip-path="url(#b)"><path fill="url(#c)" d="M 315.21875 87.734375 L 307.671875 124.164062 L 344.136719 131.714844 L 351.679688 95.285156 Z M 315.21875 87.734375"/></g></g><g clip-path="url(#d)"><g clip-path="url(#e)"><path fill="url(#f)" d="M 314.058594 248.234375 L 306.492188 284.761719 L 343.046875 292.332031 L 350.613281 255.804688 Z M 314.058594 248.234375"/></g></g><g clip-path="url(#g)"><g clip-path="url(#h)"><path fill="url(#i)" d="M 40.253906 -32.726562 L -36.976562 340.203125 L 288.085938 407.519531 L 365.316406 34.589844 Z M 40.253906 -32.726562"/></g></g><g clip-path="url(#j)"><g clip-path="url(#k)"><path fill="url(#l)" d="M 378.90625 128.433594 L 155.027344 10.394531 L 32.730469 242.347656 L 256.609375 360.382812 Z M 378.90625 128.433594"/></g></g><g clip-path="url(#m)"><g clip-path="url(#n)"><path fill="url(#o)" d="M 100.160156 129.492188 L 82.992188 212.386719 L 219.996094 240.757812 L 237.164062 157.863281 Z M 100.160156 129.492188"/></g></g></svg>